<svg xmlns="http://www.w3.org/2000/svg" width="64" height="64" viewBox="0 0 64 64">
  <defs>
    <linearGradient id="bg" x1="0%" y1="0%" x2="100%" y2="100%">
      <stop offset="0%" stop-color="#863bff"/>
      <stop offset="50%" stop-color="#6d1fff"/>
      <stop offset="100%" stop-color="#47bfff"/>
    </linearGradient>
  </defs>
  <rect width="64" height="64" rx="14" fill="url(#bg)"/>
  <!-- D -->
  <path d="M15 16h8c7.5 0 13 5.5 13 13v6c0 7.5-5.5 13-13 13h-8V16zm6.5 6v20h1.5c4 0 7-3 7-7v-6c0-4-3-7-7-7h-1.5z" fill="white"/>
  <!-- S -->
  <path d="M40 22c0-3.5 3-6 7-6s7 2.5 7 6c0 2.5-1.5 4.2-4 5.2l-4.5 1.8c-1.5.6-2.5 1.8-2.5 3.5 0 2.5 2 4.5 5 4.5 2.5 0 4.5-1.5 4.8-3.5h-5.3v-5h11v3c0 5.5-4.2 10-10.5 10S40 37 40 33.5c0-3.5 2-6 5.2-7.3l4-1.6c1.2-.5 1.8-1.3 1.8-2.3 0-1.2-1.2-2-2.8-2-1.8 0-3 1-3.2 2.5H40z" fill="white"/>
</svg>